<svg xmlns="http://www.w3.org/2000/svg" width="512" height="512" viewBox="0 0 512 512">
  <defs>
    <linearGradient id="bg" x1="0" y1="0" x2="1" y2="1">
      <stop offset="0" stop-color="#14151F"/>
      <stop offset="1" stop-color="#0A0B10"/>
    </linearGradient>
  </defs>
  <rect width="512" height="512" rx="108" fill="url(#bg)"/>
  <!-- Pinwheel bento mark, scaled from the adaptive icon (108 -> 512 grid,
       content centered in the safe area) -->
  <g transform="translate(256 256) scale(4.35) translate(-54 -54)">
    <rect x="29" y="29" width="29" height="29" rx="9" fill="#8B6FE8"/>
    <rect x="62" y="29" width="17" height="17" rx="7" fill="#EDEEF4"/>
    <rect x="62" y="50" width="17" height="29" rx="8" fill="#EDEEF4"/>
    <path fill="#EDEEF4" fill-rule="evenodd" d="M37 62h13a8 8 0 0 1 8 8v1a8 8 0 0 1-8 8H37a8 8 0 0 1-8-8v-1a8 8 0 0 1 8-8zm-1.6 8.5a2.1 2.1 0 1 0 4.2 0 2.1 2.1 0 1 0-4.2 0zm6 0a2.1 2.1 0 1 0 4.2 0 2.1 2.1 0 1 0-4.2 0zm6 0a2.1 2.1 0 1 0 4.2 0 2.1 2.1 0 1 0-4.2 0z"/>
  </g>
</svg>
